<?xml version="1.0" encoding="UTF-8" standalone="no"?>
<svg
   xmlns:dc="http://purl.org/dc/elements/1.1/"
   xmlns:cc="http://creativecommons.org/ns#"
   xmlns:rdf="http://www.w3.org/1999/02/22-rdf-syntax-ns#"
   xmlns:svg="http://www.w3.org/2000/svg"
   xmlns="http://www.w3.org/2000/svg"
   xmlns:sodipodi="http://sodipodi.sourceforge.net/DTD/sodipodi-0.dtd"
   xmlns:inkscape="http://www.inkscape.org/namespaces/inkscape"
   width="352"
   height="352"
   version="1.1"
   id="svg14"
   sodipodi:docname="solid-logo.svg"
   inkscape:version="0.92.5 (2060ec1f9f, 2020-04-08)">
  <metadata
     id="metadata20">
    <rdf:RDF>
      <cc:Work
         rdf:about="">
        <dc:format>image/svg+xml</dc:format>
        <dc:type
           rdf:resource="http://purl.org/dc/dcmitype/StillImage" />
        <dc:title></dc:title>
      </cc:Work>
    </rdf:RDF>
  </metadata>
  <defs
     id="defs18" />
  <sodipodi:namedview
     pagecolor="#ffffff"
     bordercolor="#666666"
     borderopacity="1"
     objecttolerance="10"
     gridtolerance="10"
     guidetolerance="10"
     inkscape:pageopacity="0"
     inkscape:pageshadow="2"
     inkscape:window-width="1920"
     inkscape:window-height="1053"
     id="namedview16"
     showgrid="false"
     inkscape:zoom="0.73291925"
     inkscape:cx="155.70279"
     inkscape:cy="130.3771"
     inkscape:window-x="0"
     inkscape:window-y="27"
     inkscape:window-maximized="1"
     inkscape:current-layer="svg14" />
  <g
     id="g12"
     style="fill:none;fill-rule:nonzero"
     transform="translate(0,14.68123)">
    <path
       d="M 87.97296,282.3527 27.24133,177.02207 c -5.62041,-9.75765 -5.62041,-21.77908 0,-31.53674 L 87.97296,40.2328 c 5.64643,-9.78367 16.08061,-15.79439 27.32143,-15.79439 h 121.3852 c 11.26684,0 21.72704,6.01072 27.32143,15.7944 l 60.75765,105.30458 c 5.62041,9.75766 5.62041,21.77909 0,31.53674 l -60.73163,105.33061 c -5.64643,9.78367 -16.08061,15.79439 -27.32143,15.79439 H 115.37245 c -11.31888,-0.052 -21.72704,-6.08878 -27.3995,-15.84643 z"
       id="path2"
       inkscape:connector-curvature="0"
       style="fill:#ffffff" />
    <path
       d="m 93.15102,275.19708 -57.1148,-99.0597 c -5.30816,-9.1852 -5.30816,-20.50408 0,-29.66326 L 93.15102,47.3884 C 98.4852,38.17718 108.2949,32.53075 118.8852,32.53075 h 114.2296 c 10.5903,0 20.42602,5.64643 25.73418,14.85765 l 57.16684,99.03368 c 5.30816,9.1852 5.30816,20.50408 0,29.66326 L 258.875,275.2231 c -5.33418,9.21122 -15.14388,14.85765 -25.73418,14.85765 H 118.93724 c -10.64234,0 -20.45204,-5.67245 -25.78622,-14.88367 z"
       id="path4"
       inkscape:connector-curvature="0"
       style="fill:#7c4dff" />
    <path
       d="m 118.46888,142.2328 h 117.53418 c 1.48316,0 2.65408,-1.19695 2.65408,-2.65409 v -22.03928 c 0,-14.6495 -11.89132,-26.54085 -26.54081,-26.54085 h -70.56735 c -20.5301,-0.026 -37.15722,16.60105 -37.15722,37.13115 -0.0259,7.83214 6.271,14.10306 14.07712,14.10306 z m 11.52704,97.36836 H 200.225 c 21.20663,0 38.43214,-17.22551 38.43214,-38.43214 0,-7.07755 -5.72449,-12.82806 -12.82806,-12.82806 H 106.94184 c -1.45715,0 -2.55005,1.17091 -2.55005,2.55 v 23.05408 c -0.026,14.18112 11.47505,25.65612 25.60413,25.65612 z"
       id="path6"
       inkscape:connector-curvature="0"
       style="fill:#f7f7f7" />
    <path
       d="m 109.59592,139.3185 87.66275,87.66276 c 5.80255,5.80255 15.19592,5.80255 20.99847,0 l 15.19592,-15.19592 c 5.80255,-5.80255 5.80255,-15.19591 0,-20.99847 l -87.63673,-87.66275 c -5.80255,-5.80255 -15.19592,-5.80255 -20.99847,0 l -15.19592,15.19592 c -5.8546,5.80255 -5.8546,15.22194 -0.026,20.99847 z"
       id="path8"
       inkscape:connector-curvature="0"
       style="fill:#f7f7f7" />
    <path
       d="m 198.6898,228.46443 -51.4944,-40.12347 h 11.39695 z M 144.35918,101.66698 184.925,142.23279 h 13.7648 z"
       id="path10"
       inkscape:connector-curvature="0"
       style="opacity:0.3;fill:#444444" />
  </g>
</svg>
